<?xml version="1.0" encoding="UTF-8" standalone="no"?>
<!-- Created with Inkscape (http://www.inkscape.org/) -->

<svg
   xmlns:dc="http://purl.org/dc/elements/1.1/"
   xmlns:cc="http://creativecommons.org/ns#"
   xmlns:rdf="http://www.w3.org/1999/02/22-rdf-syntax-ns#"
   xmlns:svg="http://www.w3.org/2000/svg"
   xmlns="http://www.w3.org/2000/svg"
   xmlns:sodipodi="http://sodipodi.sourceforge.net/DTD/sodipodi-0.dtd"
   xmlns:inkscape="http://www.inkscape.org/namespaces/inkscape"
   width="3500"
   height="4000"
   id="svg3074"
   version="1.1"
   inkscape:version="0.48.4 r9939"
   sodipodi:docname="RuneSerif_outline_INK.svg">
  <defs
     id="defs3076" />
  <sodipodi:namedview
     id="base"
     pagecolor="#ffffff"
     bordercolor="#666666"
     borderopacity="1.0"
     inkscape:pageopacity="0.0"
     inkscape:pageshadow="2"
     inkscape:zoom="0.35"
     inkscape:cx="890.1732"
     inkscape:cy="479.32846"
     inkscape:document-units="px"
     inkscape:current-layer="layer1"
     showgrid="false"
     inkscape:window-width="819"
     inkscape:window-height="569"
     inkscape:window-x="539"
     inkscape:window-y="251"
     inkscape:window-maximized="0" />
  <metadata
     id="metadata3079">
    <rdf:RDF>
      <cc:Work
         rdf:about="">
        <dc:format>image/svg+xml</dc:format>
        <dc:type
           rdf:resource="http://purl.org/dc/dcmitype/StillImage" />
        <dc:title />
      </cc:Work>
    </rdf:RDF>
  </metadata>
  <g
     inkscape:label="outline"
     inkscape:groupmode="layer"
     id="layer1"
     transform="translate(0,2947.6378)">
    <path
       inkscape:connector-curvature="0"
       style="fill:#040000"
       d="m 312.5,-1910.1608 c 0,0 50,0.012 50,37.512 v 393.762 l -225,-112.5 v -281.273 c 0,-37.5 50,-37.5 50,-37.5 v -12.5 h -175 v 12.5 c 0,0 50,0.012 50,37.512 v 849.988 c 0,37.5 -50,37.512 -50,37.512 v 12.5 h 175 v -12.5 c 0,0 -50,0 -50,-37.5 v -292.292 l 225,105.88 v 186.4 c 0,37.5 -50,37.512 -50,37.512 v 12.5 h 175 v -12.5 c 0,0 -50,0 -50,-37.5 v -850.012 c 0,-37.5 50,-37.5 50,-37.5 v -12.5 h -175 v 12.499 z m 50,660.143 -225,-105.103 v -199.587 l 225,113.277 v 191.413 z"
       id="path5" />
    <path
       inkscape:connector-curvature="0"
       style="fill:#040000"
       d="m 937.5,-922.6378 h -75 v 250 l -337.5,-250 v 25 925 l 337.5,-250 v 200 c 0,37.5 -50,37.512 -50,37.512 v 12.5 l 175,-0.023 v -12.5 c 0,0 -50,0 -50,-37.5 v -274.989 L 600,-52.1828 v -790.91 l 337.5,245.455 v -275.023 c 0,-37.5 50,-37.5 50,-37.5 v -12.5 l -50,-0.012 v 0.035 z"
       id="path7" />
    <path
       inkscape:connector-curvature="0"
       style="fill:#040000"
       d="m 1425,-922.6378 h -63.5 v 0.332 l -336.387,199.894 336.387,271.569 v 436.841 c -7.029,28.849 -49,28.864 -49,28.864 v 12.5 h 49 v 0.012 h 75 v -0.014 l 51,-0.01 v -12.5 c 0,0 -50,0 -50,-37.5 l -0.951,3.807 0.898,-854.027 0.053,0.209 c 0,-37.5 50,-37.5 50,-37.5 v -12.5 l -50,0.023 H 1425 z m -63.5,438.654 -291.175,-236.368 291.175,-173.628 v 409.996 z"
       id="path9" />
    <path
       inkscape:connector-curvature="0"
       style="fill:#040000"
       d="m 60.082,6.7412 163.196,-333.91 -120.563,-267.063 168.313,-344.38 130.921,285.913 -135.442,279.351 173.267,378.39 c 14.746,9.83 35.226,9.831 35.226,9.831 l 0,12.5 -137.5,-0.012 0,-12.5 c 0,0 20.848,-0.008 35.62,-10.111 L 233.327,-304.9098 84.916,1.1922 c 14.577,13.67 40.084,13.67 40.084,13.67 l 0,12.5 -100,0 1.006,-12.459 c 0,0 19.218,0.771 34.076,-8.162 z m 199.255,-401.912 103.163,-211.079 -111.26,-246.456 -103.583,213.642 z"
       id="path11"
       sodipodi:nodetypes="cccccccccccccccccccccccc" />
    <path
       inkscape:connector-curvature="0"
       style="fill:#040000"
       d="m 2687.5,-1985.1498 c 0,0 -50,0.012 -50,-37.488 l 1,-469.76 160.648,-78.533 0.852,-0.341 v -1.366 l 175,-350 h -64.975 c 0,12.5 14.975,12.5 14.975,12.5 10.826,0 12.269,9.383 4.343,28.134 l -149.32,293.723 -141.523,71.258 v -71.015 l 85.648,-34.259 0.852,-0.341 v -1.366 l 150,-298.634 h -64.975 c 0,12.5 14.975,12.5 14.975,12.5 10.504,0 12.178,8.831 5.027,26.485 l -125.005,244.006 -66.522,26.609 v -309.623 h -126 v 12.5 c 0,0 50,0.012 50,37.511 l 0.053,-0.209 -0.053,850.198 c 0,37.5 -50,37.512 -50,37.512 v 12.5 h 175 v -12.501 z"
       id="path13" />
    <path
       inkscape:connector-curvature="0"
       style="fill:#040000"
       d="m 3487.5,-2910.1498 v -12.5 h -100 v 12.5 c 0,0 25.716,0.01 40.263,13.844 l -163.228,386.329 -142.32,-386.305 c 14.542,-13.854 40.285,-13.856 40.285,-13.856 v -12.5 l -150,-0.024 v 12.5 c 0,0 25.619,0.01 40.181,13.768 l 78.048,215.332 -69.617,233.43 82.297,224.341 -96.751,228.992 c -14.646,9.145 -34.157,9.149 -34.157,9.149 v 12.5 h 100 v -12.5 c 0,0 -25.707,0 -40.255,-13.828 l 164.548,-389.455 141.113,389.326 c -14.521,13.974 -40.406,13.98 -40.406,13.98 v 12.5 h 150 v -12.5 c 0,0 -18.197,0 -32.637,-8.238 l -89.488,-242.9 66.434,-222.742 -76.773,-209.283 98.332,-232.733 c 14.642,-9.126 34.131,-9.127 34.131,-9.127 z m -308.705,603.105 -74.926,-204.787 39.813,-133.491 82.208,226.81 -47.095,111.468 z m 210.256,-87.762 -36.723,123.127 -76.795,-208.443 44.107,-104.394 69.411,189.71 z"
       id="path15" />
    <path
       inkscape:connector-curvature="0"
       style="fill:#040000"
       d="m 2362.511,-2912.2758 -112.511,327.138 -112.5,-326.556 v -10.944 h -125 v 12.5 c 0,0 42.142,0.015 49.044,29.038 l 0.956,858.462 c 0,37.5 -50,37.512 -50,37.512 v 12.5 l 175,-0.012 v -12.5 c 0,0 -50,0 -50,-37.5 v -825.381 l 112.5,312.881 110.574,-312.43 1.926,824.918 c 0,37.5 -50,37.512 -50,37.512 v 12.5 l 175,0.012 v -12.5 c 0,0 -50,-0.012 -50,-37.512 l 1,-858.648 c 7.029,-28.846 49,-28.852 49,-28.852 v -12.5 l -125,-0.012 0.011,10.374 z"
       id="path17" />
    <path
       inkscape:connector-curvature="0"
       style="fill:#040000"
       d="m 1187.5,-1985.1148 c 0,0 -50,0 -50,-37.5 v -333.905 l 283.4,354.461 c 0.479,16.919 -23.813,16.921 -33.4,16.921 v 12.5 h 87.5 l -337.5,-422.298 v -477.69 c 0,-37.5 50,-37.5 50,-37.5 v -12.5 h -175 v 12.5 c 0,0 50,0.012 50,37.512 v 849.988 c 0,37.5 -50,37.512 -50,37.512 v 12.5 h 175 v -12.501 z"
       id="path19" />
    <path
       inkscape:connector-curvature="0"
       style="fill:#040000"
       d="m 637.5,-1972.6148 339.5,-259.371 v -28.5 l -339.5,-187.152 339.5,-259.04 v -28.501 l -339.5,-187.459 h -125 v 12.5 c 0,0 50,0.012 50,37.511 v 849.989 c 0,37.5 -50,37.512 -50,37.512 v 12.5 h 125 v 0.011 z m 0,-922.154 316.863,175.549 -316.863,245.047 v -420.596 z m 0,474.693 318.043,176.204 -318.043,246.246 v -422.45 z"
       id="path21" />
    <path
       inkscape:connector-curvature="0"
       style="fill:#040000"
       d="m 187.5,-1985.1258 c 0,0 -50,0 -50,-37.5 v -584.961 l 287.5,159.949 c 17.939,7.881 37.5,60.021 37.5,87.5 H 475 v -87.5 l -337.5,-187.5 v -258.841 l 287.5,158.841 c 18.311,8.344 37.5,59.821 37.5,87.5 H 475 v -87.848 l -337.5,-187.152 h -125 v 12.5 c 0,0 50,0.012 50,37.511 v 849.989 c 0,37.5 -50,37.512 -50,37.512 v 12.5 h 175 v -12.5 z"
       id="path23" />
    <path
       inkscape:connector-curvature="0"
       style="fill:#040000"
       d="m 1750,-2492.3498 -112.5,-430.288 h -125 v 12.5 c 0,0 50,0.012 50,37.511 l 0.053,-0.209 -0.053,850.198 c 0,37.5 -50,37.512 -50,37.512 v 12.5 l 125,-0.012 112.688,-424.283 112.312,424.295 v -0.012 l 125,0.012 v -12.5 c 0,0 -50,0 -50,-37.5 v -850.012 c 0,-37.5 50,-37.5 50,-37.5 v -12.5 h -125 l -112.5,430.288 z m -111.5,428.37 v -754.88 l 99.069,374.268 -99.069,380.612 z m 124.097,-379.976 99.013,-375.304 0.798,758.767 -99.811,-383.463 z"
       id="path25" />
    <path
       inkscape:connector-curvature="0"
       style="fill:#040000"
       d="m 2187.5,-985.1378 c 0,0 -50,0 -50,-37.5 v -869.324 l 287.5,156.824 c 25,12.5 37.5,44.104 37.5,75 h 12.5 v -75 l -337.5,-187.5 -125,-0.012 v 12.5 c 0,0 50,0.012 50,37.512 v 849.988 c 0,37.5 -50,37.512 -50,37.512 v 12.5 h 175 v -12.5 z"
       id="path27" />
    <path
       inkscape:connector-curvature="0"
       style="fill:#040000"
       d="m 1024.074,-987.1908 0.926,14.553 112.5,-0.012 v -12.5 c 0,0 -25.743,0 -40.285,-13.855 l 138.362,-375.556 120.617,381.955 c -14.179,7.448 -31.194,7.456 -31.194,7.456 v 12.5 h 150 v -12.5 c 0,0 -37.5,0.012 -50,-24.988 l -149.038,-474.038 149.038,-400.962 c 12.5,-25 50,-24.988 50,-24.988 v -12.5 h -100 v 12.5 c 0,0 16.318,0.01 30.311,7.004 l -140.888,382.407 -120.616,-381.951 c 14.179,-7.444 31.193,-7.448 31.193,-7.448 v -12.5 l -150,-0.024 v 12.5 c 0,0 37.5,0 50,25 l 149.038,474.038 -149.477,400.962 c -10.525,26.164 -50.487,22.947 -50.487,22.947 z"
       id="path29" />
    <path
       inkscape:connector-curvature="0"
       style="fill:#040000"
       d="m 1545.492,-990.7528 c -9.918,5.615 -20.492,5.615 -20.492,5.615 v 12.5 h 37.5 l 150,-340 v 289.977 c 0,37.5 -50,37.512 -50,37.512 v 12.5 h 175 v -12.5 c 0,0 -50,0 -50,-37.5 v -289.99 l 150,339.99 v 0.011 l 37.5,-0.023 v -12.5 c 0,0 -10.578,0.01 -20.498,-5.605 l -167.002,-378.539 v -503.321 c 0,-37.5 50,-37.5 50,-37.5 v -12.5 h -175 v 12.5 c 0,0 50,0.012 50,37.512 v 503.31 l -167.008,378.551 z"
       id="path31" />
    <path
       inkscape:connector-curvature="0"
       style="fill:#040000"
       d="m 3045.629,-1638.5008 c -7.17,-7.872 -8.129,-23.502 -8.129,-34.137 0,0 0,0.084 -12.5,0.084 0,10.804 0,74.889 0,87.5 12.5,0 12.5,-0.084 12.5,-0.084 0,-13.835 3.84,-23.8 13.614,-25.719 l 161.386,72.733 v 515.486 c 0,37.5 -50,37.512 -50,37.512 v 12.5 l 175,0.023 v -12.5 c 0,0 -50,0 -50,-37.5 v -481.72 l 162.051,73.034 c 8.629,8.593 12.949,18.963 12.949,33.65 0,0 0,0 12.5,0 0,-8.589 0,-76.605 0,-87.5 h -12.5 c 0,0 0,21.442 -10.816,26.49 l -164.184,-72.719 v -341.246 c 0,-37.5 50,-37.5 50,-37.5 v -12.5 l -175,-0.023 v 12.5 c 0,0 50,0.012 50,37.512 v 308.037 l -166.871,-73.913 z"
       id="path33" />
    <path
       inkscape:connector-curvature="0"
       style="fill:#040000"
       d="m 2750.5,-1601.1258 -112,-321.5 -125,-0.012 v 12.5 c 0,0 37.5,0.012 49.044,29.038 l -0.044,858.462 c 0,37.5 -49,37.512 -49,37.512 v 12.5 l 175,-0.012 v -12.5 c 0,0 -50,0 -50,-37.5 v -199.988 l 112.5,-312.5 112.236,311.767 -0.736,200.721 c 0,37.5 -49,37.512 -49,37.512 v 12.5 l 175,-0.012 v -12.5 c 0,0 -50,0 -50,-37.5 l -1,-862.5 c 12.5,-25 51,-25.012 51,-25.012 v -12.5 l -126,0.012 -112,321.512 z m -112,303.5 v -550 l 99,275 -99,275 z m 224.657,-0.953 -98.657,-274.047 98.082,-272.449 0.575,546.496 z"
       id="path35" />
    <path
       inkscape:connector-curvature="0"
       style="fill:#040000"
       d="m 837.5,-1910.1608 v -12.5 h -175 v 12.5 c 0,0 50,0.012 50,37.512 v 849.988 c 0,37.5 -50,37.512 -50,37.512 v 12.5 h 175 v -12.5 c 0,0 -50,0 -50,-37.5 v -850.012 c 0,-37.5 50,-37.5 50,-37.5 z"
       id="path37" />
    <path
       inkscape:connector-curvature="0"
       style="fill:#040000"
       d="m 464.5,277.3622 12.5,0 0,59.347 0,28.153 -339.5,187.5 0,259.949 296.189,-164.105 c 17.187,-21.194 30.811,-55.665 30.811,-83.344 l 12.5,0 0,59.347 0,28.501 -339.5,187.152 0,137.523 c 0,37.5 50,37.5 50,37.5 l 0,12.5 -175,0 0,-12.5 c 0,0 50,-0.012 50,-37.512 l 0,-849.988 c 0,-37.5 -50,-37.512 -50,-37.512 l 0,-12.5 175,0 0,12.5 c 0,0 -50,0 -50,37.5 l 0,397.438 296.561,-164.568 c 17.011,-21.23 30.439,-55.402 30.439,-82.881 z"
       id="path39"
       sodipodi:nodetypes="ccccccccccccsccccssccccsccc" />
    <path
       inkscape:connector-curvature="0"
       style="fill:#040000"
       d="M 650,514.7692 930.195,279.4002 650,106.5042 z m 0,33.147 0,429.446 c 0,37.5 49,37.263 49,37.263 l 0,12.5 -174,0.249 0,-12.5 c 0,0 50,-0.012 50,-37.512 l 0,-862.5 c 0,-25 -50,-25 -50,-25 l 0,-12.5 125,0 323.887,199.977 z"
       id="path41"
       sodipodi:nodetypes="ccccccsccccsscccc" />
    <path
       inkscape:connector-curvature="0"
       style="fill:#040000"
       d="m 2312.5,89.8742 c 0,0 17.126,3.417 29.862,8.47 L 2025,302.3622 l 375,250 -375,225 386.936,227.609 c -2.773,9.91 -35.93,9.932 -35.93,9.932 l -1.006,12.459 h 112.5 v -12.5 c 0,0 -12.104,-0.01 -29.427,-4.586 L 2100,802.3622 l 375,-225 -375,-250 329.778,-219.852 c 25.62,-9.618 57.722,-17.637 57.722,-17.637 v -12.5 h -175 v 12.501 z"
       id="path43" />
    <path
       inkscape:connector-curvature="0"
       style="fill:#040000"
       d="m 1287.5,411.2912 v -283.952 c 0,-37.5 50,-37.5 50,-37.5 v -12.5 h -175 v 12.5 c 0,0 50,0.012 50,37.512 v 283.94 L 1075,77.3622 v -0.012 l -50,0.013 v 12.5 c 0,0 19.223,0 33.83,8.943 l 153.67,373.198 v 505.334 c 0,37.5 -50,37.512 -50,37.512 v 12.5 h 175 v -12.5 c 0,0 -50,0 -50,-37.5 v -505.346 l 154.486,-375.182 c 14.512,-7.691 32.008,-6.99 32.008,-6.99 l 1.006,-12.459 -50,-0.012 -137.5,333.93 z"
       id="path45" />
    <path
       inkscape:connector-curvature="0"
       style="fill:#040000"
       d="m 1975,552.3622 -187.5,-208.333 v -216.679 c 0,-37.5 50,-37.5 50,-37.5 v -12.5 h -175 v 12.5 c 0,0 50,0.012 50,37.512 v 216.667 l -187.5,208.333 187.5,187.5 v 237.477 c 0,37.5 -50,37.512 -50,37.512 v 12.5 h 175 v -12.5 c 0,0 -50,0 -50,-37.5 v -237.489 l 187.5,-187.5 z m -187.5,-170.963 153.051,170.057 -153.051,153.051 v -323.108 z m -75,323.108 -153.051,-153.051 153.051,-170.057 v 323.108 z"
       id="path47" />
    <path
       inkscape:connector-curvature="0"
       style="fill:#040000"
       d="m 2525,-672.6378 v 50 l 187.5,-208.333 v 808.321 c 0,37.5 -50,37.512 -50,37.512 v 12.5 l 175,-0.012 v -12.5 c 0,0 -50,0 -50,-37.5 v -812.488 l 187.5,187.5 v -50 l -225,-225 -225,250 z"
       id="path49" />
    <path
       inkscape:connector-curvature="0"
       style="fill:#040000"
       d="m 2437.5,-22.6378 v -550 l -300,162.5 v -462.5 c 0,-37.5 50,-37.488 50,-37.488 v -12.5 l -175,-0.012 v 12.5 c 0,0 50,0 50,37.5 v 537.5 l 300,-162.5 -0.551,474.62 c 0.551,37.88 -49.449,37.892 -49.449,37.892 v 12.5 l 175,-0.012 v -12.5 c 0,0 -50,0 -50,-37.5 z"
       id="path51" />
    <path
       inkscape:connector-curvature="0"
       style="fill:#040000"
       d="m 3450,3.3952 c 14.81,11.467 37.5,11.467 37.5,11.467 l 0,12.5 -100,0 1.006,-12.459 c 0,0 23.994,-0.041 36.494,-12.541 l 0,-378.539 -106.786,-349.66 -167.214,-163.007 0,866.206 c 0,37.5 49,37.5 49,37.5 l 0,12.5 -174,0.012 0,-12.5 c 0,0 50.051,-1.967 50,-37.512 l -0.945,-850.209 -0.055,0.221 c 0,-37.5 -50,-37.512 -50,-37.512 l 0,-12.5 125,0 190.118,182.93 109.882,359.799 z"
       id="path53"
       sodipodi:nodetypes="cccccccccsccccccccccccc" />
    <path
       inkscape:connector-curvature="0"
       style="fill:#040000"
       d="m 1956.219,-3.2838 -261.218,-498.011 279.999,-221.343 -336.57,-200.226 -3.064,0.214 H 1561.5 v 0.012 h -49 v 12.5 c 0,0 42.142,0.015 49.044,29.039 l 0.905,860.416 c -1.709,35.542 -49.949,35.557 -49.949,35.557 v 12.5 h 50 v -0.012 h 75 v 0.012 l 50,-0.012 v -12.5 c 0,0 -50,0 -50,-37.5 v -872.456 l 292.338,174.517 -265.889,211.396 286.051,536.543 37.5,-0.023 v -12.5 c -8.915,0.016 -17.832,0.015 -31.281,-18.123 z"
       id="path55" />
  </g>
</svg>
