<?xml version="1.0" encoding="iso-8859-1"?>
<!-- Generator: Adobe Illustrator 15.0.0, SVG Export Plug-In . SVG Version: 6.00 Build 0)  -->
<!DOCTYPE svg PUBLIC "-//W3C//DTD SVG 1.1//EN" "http://www.w3.org/Graphics/SVG/1.1/DTD/svg11.dtd">
<svg version="1.1" id="&#x30EC;&#x30A4;&#x30E4;&#x30FC;_1"
	 xmlns="http://www.w3.org/2000/svg" xmlns:xlink="http://www.w3.org/1999/xlink" x="0px" y="0px" width="3500px" height="4000px"
	 viewBox="0 0 3500 4000" style="enable-background:new 0 0 3500 4000;" xml:space="preserve">
<g>
	<path style="fill:#040000;" d="M312.5,1037.477c0,0,50,0.012,50,37.512v393.762l-225-112.5v-281.273c0-37.5,50-37.5,50-37.5v-12.5
		h-175v12.5c0,0,50,0.012,50,37.512v849.988c0,37.5-50,37.512-50,37.512v12.5h175v-12.5c0,0-50,0-50-37.5v-292.292l225,105.88v186.4
		c0,37.5-50,37.512-50,37.512v12.5h175v-12.5c0,0-50,0-50-37.5v-850.012c0-37.5,50-37.5,50-37.5v-12.5h-175V1037.477z
		 M362.5,1697.62l-225-105.103V1392.93l225,113.277V1697.62z"/>
	<path style="fill:#040000;" d="M937.5,2025h-75v250L525,2025v25v925l337.5-250v200c0,37.5-50,37.512-50,37.512v12.5l175-0.023
		v-12.5c0,0-50,0-50-37.5V2650L600,2895.455v-790.91L937.5,2350v-275.023c0-37.5,50-37.5,50-37.5v-12.5l-50-0.012V2025z"/>
	<path style="fill:#040000;" d="M1425,2025h-63.5v0.332l-336.387,199.894l336.387,271.569v436.841
		c-7.029,28.849-49,28.864-49,28.864v12.5h49v0.012h75v-0.014l51-0.01v-12.5c0,0-50,0-50-37.5l-0.951,3.807l0.898-854.027
		l0.053,0.209c0-37.5,50-37.5,50-37.5v-12.5l-50,0.023H1425z M1361.5,2463.654l-291.175-236.368l291.175-173.628V2463.654z"/>
	<path style="fill:#040000;" d="M26.006,2962.541L25,2975h100v-12.5c0,0-25.507-0.004-40.084-13.67l148.411-306.102l139.793,309.66
		c-14.772,10.103-35.62,10.111-35.62,10.111v12.5l137.5,0.012v-12.5c0,0-20.48-0.001-35.226-9.831l-173.267-378.39l135.442-279.351
		l-130.921-285.913l-168.313,344.38l120.563,267.063l-163.196,333.91C45.224,2963.312,26.006,2962.541,26.006,2962.541z
		 M147.657,2308.574l103.583-213.642l111.26,246.456l-103.163,211.079L147.657,2308.574z"/>
	<path style="fill:#040000;" d="M2687.5,962.488c0,0-50,0.012-50-37.488l1-469.76l160.648-78.533l0.852-0.341V375l175-350h-64.975
		c0,12.5,14.975,12.5,14.975,12.5c10.826,0,12.269,9.383,4.343,28.134l-149.32,293.723L2638.5,430.615V359.6l85.648-34.259L2725,325
		v-1.366L2875,25h-64.975c0,12.5,14.975,12.5,14.975,12.5c10.504,0,12.178,8.831,5.027,26.485l-125.005,244.006L2638.5,334.6V24.977
		h-126v12.5c0,0,50,0.012,50,37.511l0.053-0.209l-0.053,850.198c0,37.5-50,37.512-50,37.512v12.5h175V962.488z"/>
	<path style="fill:#040000;" d="M3487.5,37.488v-12.5h-100v12.5c0,0,25.716,0.008,40.263,13.844l-163.228,386.329l-142.32-386.305
		C3136.757,37.502,3162.5,37.5,3162.5,37.5V25l-150-0.024v12.5c0,0,25.619,0.009,40.181,13.768l78.048,215.332l-69.617,233.43
		l82.297,224.341l-96.751,228.992c-14.646,9.145-34.157,9.149-34.157,9.149v12.5h100v-12.5c0,0-25.707-0.002-40.255-13.828
		l164.548-389.455l141.113,389.326c-14.521,13.974-40.406,13.98-40.406,13.98v12.5h150v-12.5c0,0-18.197-0.004-32.637-8.238
		l-89.488-242.9l66.434-222.742l-76.773-209.283l98.332-232.733C3468.011,37.489,3487.5,37.488,3487.5,37.488z M3178.795,640.593
		l-74.926-204.787l39.813-133.491l82.208,226.81L3178.795,640.593z M3389.051,552.831l-36.723,123.127l-76.795-208.443
		l44.107-104.394L3389.051,552.831z"/>
	<path style="fill:#040000;" d="M2362.511,35.362L2250,362.5L2137.5,35.944V25h-125v12.5c0,0,42.142,0.015,49.044,29.038L2062.5,925
		c0,37.5-50,37.512-50,37.512v12.5l175-0.012v-12.5c0,0-50,0-50-37.5V99.619L2250,412.5l110.574-312.43l1.926,824.918
		c0,37.5-50,37.512-50,37.512V975l175,0.012v-12.5c0,0-50-0.012-50-37.512l1-858.648c7.029-28.846,49-28.852,49-28.852V25
		l-125-0.012L2362.511,35.362z"/>
	<path style="fill:#040000;" d="M1187.5,962.523c0,0-50,0-50-37.5V591.118l283.4,354.461c0.479,16.919-23.813,16.921-33.4,16.921
		V975h87.5l-337.5-422.298V75.012c0-37.5,50-37.5,50-37.5v-12.5h-175v12.5c0,0,50,0.012,50,37.512v849.988
		c0,37.5-50,37.512-50,37.512v12.5h175V962.523z"/>
	<path style="fill:#040000;" d="M637.5,975.023L977,715.652v-28.5L637.5,500L977,240.96v-28.501L637.5,25h-125v12.5
		c0,0,50,0.012,50,37.511V925c0,37.5-50,37.512-50,37.512v12.5h125V975.023z M637.5,52.869l316.863,175.549L637.5,473.465V52.869z
		 M637.5,527.562l318.043,176.204L637.5,950.012V527.562z"/>
	<path style="fill:#040000;" d="M187.5,962.512c0,0-50,0-50-37.5V340.051L425,500c17.939,7.881,37.5,60.021,37.5,87.5H475V500
		L137.5,312.5V53.659L425,212.5c18.311,8.344,37.5,59.821,37.5,87.5H475v-87.848L137.5,25h-125v12.5c0,0,50,0.012,50,37.511V925
		c0,37.5-50,37.512-50,37.512v12.5h175V962.512z"/>
	<path style="fill:#040000;" d="M1750,455.288L1637.5,25h-125v12.5c0,0,50,0.012,50,37.511l0.053-0.209L1562.5,925
		c0,37.5-50,37.512-50,37.512v12.5l125-0.012l112.688-424.283L1862.5,975.012V975l125,0.012v-12.5c0,0-50,0-50-37.5V75
		c0-37.5,50-37.5,50-37.5V25h-125L1750,455.288z M1638.5,883.658v-754.88l99.069,374.268L1638.5,883.658z M1762.597,503.682
		l99.013-375.304l0.798,758.767L1762.597,503.682z"/>
	<path style="fill:#040000;" d="M2187.5,1962.5c0,0-50,0-50-37.5v-869.324L2425,1212.5c25,12.5,37.5,44.104,37.5,75h12.5v-75
		L2137.5,1025l-125-0.012v12.5c0,0,50,0.012,50,37.512v849.988c0,37.5-50,37.512-50,37.512v12.5h175V1962.5z"/>
	<path style="fill:#040000;" d="M1024.074,1960.447L1025,1975l112.5-0.012v-12.5c0,0-25.743-0.002-40.285-13.855l138.362-375.556
		l120.617,381.955c-14.179,7.448-31.194,7.456-31.194,7.456v12.5h150v-12.5c0,0-37.5,0.012-50-24.988l-149.038-474.038L1425,1062.5
		c12.5-25,50-24.988,50-24.988v-12.5h-100v12.5c0,0,16.318,0.008,30.311,7.004l-140.888,382.407l-120.616-381.951
		c14.179-7.444,31.193-7.448,31.193-7.448v-12.5L1025,1025v12.5c0,0,37.5,0,50,25l149.038,474.038L1074.561,1937.5
		C1064.036,1963.664,1024.074,1960.447,1024.074,1960.447z"/>
	<path style="fill:#040000;" d="M1545.492,1956.885c-9.918,5.615-20.492,5.615-20.492,5.615v12.5h37.5l150-340v289.977
		c0,37.5-50,37.512-50,37.512v12.5h175v-12.5c0,0-50,0-50-37.5v-289.99l150,339.99V1975l37.5-0.023v-12.5
		c0,0-10.578,0.006-20.498-5.605L1787.5,1578.333v-503.321c0-37.5,50-37.5,50-37.5v-12.5h-175v12.5c0,0,50,0.012,50,37.512v503.31
		L1545.492,1956.885z"/>
	<path style="fill:#040000;" d="M3045.629,1309.137c-7.17-7.872-8.129-23.502-8.129-34.137c0,0,0,0.084-12.5,0.084
		c0,10.804,0,74.889,0,87.5c12.5,0,12.5-0.084,12.5-0.084c0-13.835,3.84-23.8,13.614-25.719l161.386,72.733V1925
		c0,37.5-50,37.512-50,37.512v12.5l175,0.023v-12.5c0,0-50,0-50-37.5v-481.72l162.051,73.034
		c8.629,8.593,12.949,18.963,12.949,33.65c0,0,0,0,12.5,0c0-8.589,0-76.605,0-87.5h-12.5c0,0-0.004,21.442-10.816,26.49
		L3287.5,1416.27v-341.246c0-37.5,50-37.5,50-37.5v-12.5l-175-0.023v12.5c0,0,50,0.012,50,37.512v308.037L3045.629,1309.137z"/>
	<path style="fill:#040000;" d="M2750.5,1346.512l-112-321.5l-125-0.012v12.5c0,0,37.5,0.012,49.044,29.038L2562.5,1925
		c0,37.5-49,37.512-49,37.512v12.5l175-0.012v-12.5c0,0-50,0-50-37.5v-199.988l112.5-312.5l112.236,311.767L2862.5,1925
		c0,37.5-49,37.512-49,37.512v12.5l175-0.012v-12.5c0,0-50,0-50-37.5l-1-862.5c12.5-25,51-25.012,51-25.012v-12.5l-126,0.012
		L2750.5,1346.512z M2638.5,1650.012v-550l99,275L2638.5,1650.012z M2863.157,1649.059l-98.657-274.047l98.082-272.449
		L2863.157,1649.059z"/>
	<path style="fill:#040000;" d="M837.5,1037.477v-12.5h-175v12.5c0,0,50,0.012,50,37.512v849.988c0,37.5-50,37.512-50,37.512v12.5
		h175v-12.5c0,0-50,0-50-37.5v-850.012C787.5,1037.477,837.5,1037.477,837.5,1037.477z"/>
	<path style="fill:#040000;" d="M434.061,3307.881L137.5,3472.449v-397.438c0-37.5,50-37.5,50-37.5v-12.5h-175v12.5
		c0,0,50,0.012,50,37.512v849.988c0,37.5-50,37.512-50,37.512v12.5h175v-12.5c0,0-50,0-50-37.5V3787.5L477,3600.348v-28.501V3512.5
		h-12.5c0,27.679-13.624,62.15-30.811,83.344L137.5,3759.949V3500L477,3312.5v-28.153V3225h-12.5
		C464.5,3252.479,451.072,3286.651,434.061,3307.881z"/>
	<path style="fill:#040000;" d="M973.887,3224.977L650,3025H525v12.5c0,0,50,0,50,25V3925c0,37.5-50,37.512-50,37.512v12.5
		l174-0.249v-12.5c0,0-49,0.237-49-37.263v-429.446L973.887,3224.977z M650,3054.142l280.195,172.896L650,3462.407V3054.142z"/>
	<path style="fill:#040000;" d="M2312.5,3037.512c0,0,17.126,3.417,29.862,8.47L2025,3250l375,250l-375,225l386.936,227.609
		c-2.773,9.91-35.93,9.932-35.93,9.932L2375,3975h112.5v-12.5c0,0-12.104-0.006-29.427-4.586L2100,3750l375-225l-375-250
		l329.778-219.852c25.62-9.618,57.722-17.637,57.722-17.637v-12.5h-175V3037.512z"/>
	<path style="fill:#040000;" d="M1287.5,3358.929v-283.952c0-37.5,50-37.5,50-37.5v-12.5h-175v12.5c0,0,50,0.012,50,37.512v283.94
		L1075,3025v-0.012l-50,0.013v12.5c0,0,19.223,0.003,33.83,8.943l153.67,373.198v505.334c0,37.5-50,37.512-50,37.512v12.5h175v-12.5
		c0,0-50,0-50-37.5v-505.346l154.486-375.182c14.512-7.691,32.008-6.99,32.008-6.99l1.006-12.459l-50-0.012L1287.5,3358.929z"/>
	<path style="fill:#040000;" d="M1975,3500l-187.5-208.333v-216.679c0-37.5,50-37.5,50-37.5v-12.5h-175v12.5c0,0,50,0.012,50,37.512
		v216.667L1525,3500l187.5,187.5v237.477c0,37.5-50,37.512-50,37.512v12.5h175v-12.5c0,0-50,0-50-37.5V3687.5L1975,3500z
		 M1787.5,3329.037l153.051,170.057L1787.5,3652.145V3329.037z M1712.5,3652.145l-153.051-153.051l153.051-170.057V3652.145z"/>
	<path style="fill:#040000;" d="M2525,2275v50l187.5-208.333v808.321c0,37.5-50,37.512-50,37.512v12.5l175-0.012v-12.5
		c0,0-50,0-50-37.5V2112.5L2975,2300v-50l-225-225L2525,2275z"/>
	<path style="fill:#040000;" d="M2437.5,2925v-550l-300,162.5V2075c0-37.5,50-37.488,50-37.488v-12.5l-175-0.012v12.5
		c0,0,50,0,50,37.5v537.5l300-162.5l-0.551,474.62c0.551,37.88-49.449,37.892-49.449,37.892v12.5l175-0.012v-12.5
		C2487.5,2962.5,2437.5,2962.5,2437.5,2925z"/>
	<path style="fill:#040000;" d="M3450,2567.729l-109.882-359.799L3150,2025h-125v12.5c0,0,50,0.012,50,37.512l0.055-0.221L3076,2925
		c0.051,35.545-50,37.512-50,37.512v12.5l174-0.012v-12.5c0,0-49,0-49-37.5v-866.206l167.214,163.007L3425,2571.461V2950
		c-12.5,12.5-36.494,12.541-36.494,12.541L3387.5,2975h100v-12.5c0,0-22.69-0.002-37.5-11.467V2567.729z"/>
	<path style="fill:#040000;" d="M1956.219,2944.354l-261.218-498.011L1975,2225l-336.57-200.226l-3.064,0.214H1561.5V2025h-49v12.5
		c0,0,42.142,0.015,49.044,29.039l0.905,860.416c-1.709,35.542-49.949,35.557-49.949,35.557v12.5h50V2975h75v0.012l50-0.012v-12.5
		c0,0-50,0-50-37.5v-872.456l292.338,174.517l-265.889,211.396L1950,2975l37.5-0.023v-12.5
		C1978.585,2962.493,1969.668,2962.492,1956.219,2944.354z"/>
</g>
</svg>
