<?xml version="1.0" encoding="UTF-8"?>
<svg height="1000" width="500" xmlns:inkscape="http://www.inkscape.org/namespaces/inkscape" xmlns:sodipodi="http://sodipodi.sourceforge.net/DTD/sodipodi-0.dtd">
  <path id="path15" d="m 487,37 v -12.5 h -100 v 12.5 c 0,0 25.716,0.01 40.263,13.844 l -163.228,386.329 -142.32,-386.305 c 14.542,-13.854 40.285,-13.856 40.285,-13.856 v -12.5 l -150,-0.024 v 12.5 c 0,0 25.619,0.01 40.181,13.768 l 78.048,215.332 -69.617,233.43 82.297,224.341 -96.751,228.992 c -14.646,9.145 -34.157,9.149 -34.157,9.149 v 12.5 h 100 v -12.5 c 0,0 -25.707,0 -40.255,-13.828 l 164.548,-389.455 141.113,389.326 c -14.521,13.974 -40.406,13.98 -40.406,13.98 v 12.5 h 150 v -12.5 c 0,0 -18.197,0 -32.637,-8.238 l -89.488,-242.9 66.434,-222.742 -76.773,-209.283 98.332,-232.733 c 14.642,-9.126 34.131,-9.127 34.131,-9.127 z m -308.705,603.105 -74.926,-204.787 39.813,-133.491 82.208,226.81 -47.095,111.468 z m 210.256,-87.762 -36.723,123.127 -76.795,-208.443 44.107,-104.394 69.411,189.71 z " inkscape:connector-curvature="0" style="fill:#040000" />
</svg>
