<?xml version="1.0" encoding="UTF-8"?>
<svg height="1000" width="500" xmlns:inkscape="http://www.inkscape.org/namespaces/inkscape" xmlns:sodipodi="http://sodipodi.sourceforge.net/DTD/sodipodi-0.dtd">
  <path id="path33" d="m 45,309 c -7.17,-7.872 -8.129,-23.502 -8.129,-34.137 0,0 0,0.084 -12.5,0.084 0,10.804 0,74.889 0,87.5 12.5,0 12.5,-0.084 12.5,-0.084 0,-13.835 3.84,-23.8 13.614,-25.719 l 161.386,72.733 v 515.486 c 0,37.5 -50,37.512 -50,37.512 v 12.5 l 175,0.023 v -12.5 c 0,0 -50,0 -50,-37.5 v -481.72 l 162.051,73.034 c 8.629,8.593 12.949,18.963 12.949,33.65 0,0 0,0 12.5,0 0,-8.589 0,-76.605 0,-87.5 h -12.5 c 0,0 0,21.442 -10.816,26.49 l -164.184,-72.719 v -341.246 c 0,-37.5 50,-37.5 50,-37.5 v -12.5 l -175,-0.023 v 12.5 c 0,0 50,0.012 50,37.512 v 308.037 l -166.871,-73.913 z " inkscape:connector-curvature="0" style="fill:#040000" />
</svg>
