<?xml version="1.0" encoding="UTF-8"?>
<svg height="1000" width="500" xmlns:inkscape="http://www.inkscape.org/namespaces/inkscape" xmlns:sodipodi="http://sodipodi.sourceforge.net/DTD/sodipodi-0.dtd">
  <path id="path29" d="m 24,960 0.926,14.553 112.5,-0.012 v -12.5 c 0,0 -25.743,0 -40.285,-13.855 l 138.362,-375.556 120.617,381.955 c -14.179,7.448 -31.194,7.456 -31.194,7.456 v 12.5 h 150 v -12.5 c 0,0 -37.5,0.012 -50,-24.988 l -149.038,-474.038 149.038,-400.962 c 12.5,-25 50,-24.988 50,-24.988 v -12.5 h -100 v 12.5 c 0,0 16.318,0.01 30.311,7.004 l -140.888,382.407 -120.616,-381.951 c 14.179,-7.444 31.193,-7.448 31.193,-7.448 v -12.5 l -150,-0.024 v 12.5 c 0,0 37.5,0 50,25 l 149.038,474.038 -149.477,400.962 c -10.525,26.164 -50.487,22.947 -50.487,22.947 z " inkscape:connector-curvature="0" style="fill:#040000" />
</svg>
