<?xml version="1.0" encoding="UTF-8"?>
<svg height="1000" width="500" xmlns:inkscape="http://www.inkscape.org/namespaces/inkscape" xmlns:sodipodi="http://sodipodi.sourceforge.net/DTD/sodipodi-0.dtd">
  <path id="path13" d="m 187,962 c 0,0 -50,0.012 -50,-37.488 l 1,-469.76 160.648,-78.533 0.852,-0.341 v -1.366 l 175,-350 h -64.975 c 0,12.5 14.975,12.5 14.975,12.5 10.826,0 12.269,9.383 4.343,28.134 l -149.32,293.723 -141.523,71.258 v -71.015 l 85.648,-34.259 0.852,-0.341 v -1.366 l 150,-298.634 h -64.975 c 0,12.5 14.975,12.5 14.975,12.5 10.504,0 12.178,8.831 5.027,26.485 l -125.005,244.006 -66.522,26.609 v -309.623 h -126 v 12.5 c 0,0 50,0.012 50,37.511 l 0.053,-0.209 -0.053,850.198 c 0,37.5 -50,37.512 -50,37.512 v 12.5 h 175 v -12.501 z " inkscape:connector-curvature="0" style="fill:#040000" />
</svg>
