<?xml version="1.0" encoding="UTF-8"?>
<svg height="1000" width="500" xmlns:inkscape="http://www.inkscape.org/namespaces/inkscape" xmlns:sodipodi="http://sodipodi.sourceforge.net/DTD/sodipodi-0.dtd">
  <path id="path17" d="m 362,35 -112.511,327.138 -112.5,-326.556 v -10.944 h -125 v 12.5 c 0,0 42.142,0.015 49.044,29.038 l 0.956,858.462 c 0,37.5 -50,37.512 -50,37.512 v 12.5 l 175,-0.012 v -12.5 c 0,0 -50,0 -50,-37.5 v -825.381 l 112.5,312.881 110.574,-312.43 1.926,824.918 c 0,37.5 -50,37.512 -50,37.512 v 12.5 l 175,0.012 v -12.5 c 0,0 -50,-0.012 -50,-37.512 l 1,-858.648 c 7.029,-28.846 49,-28.852 49,-28.852 v -12.5 l -125,-0.012 0.011,10.374 z " inkscape:connector-curvature="0" style="fill:#040000" />
</svg>
