<?xml version="1.0" encoding="UTF-8"?>
<svg height="1000" width="500" xmlns:inkscape="http://www.inkscape.org/namespaces/inkscape" xmlns:sodipodi="http://sodipodi.sourceforge.net/DTD/sodipodi-0.dtd">
  <path id="path35" d="m 250,346 -112,-321.5 -125,-0.012 v 12.5 c 0,0 37.5,0.012 49.044,29.038 l -0.044,858.462 c 0,37.5 -49,37.512 -49,37.512 v 12.5 l 175,-0.012 v -12.5 c 0,0 -50,0 -50,-37.5 v -199.988 l 112.5,-312.5 112.236,311.767 -0.736,200.721 c 0,37.5 -49,37.512 -49,37.512 v 12.5 l 175,-0.012 v -12.5 c 0,0 -50,0 -50,-37.5 l -1,-862.5 c 12.5,-25 51,-25.012 51,-25.012 v -12.5 l -126,0.012 -112,321.512 z m -112,303.5 v -550 l 99,275 -99,275 z m 224.657,-0.953 -98.657,-274.047 98.082,-272.449 0.575,546.496 z " inkscape:connector-curvature="0" style="fill:#040000" />
</svg>
