<?xml version="1.0" encoding="UTF-8"?>
<svg height="1000" width="500" xmlns:inkscape="http://www.inkscape.org/namespaces/inkscape" xmlns:sodipodi="http://sodipodi.sourceforge.net/DTD/sodipodi-0.dtd">
  <path id="path5" d="m 312,37 c 0,0 50,0.012 50,37.512 v 393.762 l -225,-112.5 v -281.273 c 0,-37.5 50,-37.5 50,-37.5 v -12.5 h -175 v 12.5 c 0,0 50,0.012 50,37.512 v 849.988 c 0,37.5 -50,37.512 -50,37.512 v 12.5 h 175 v -12.5 c 0,0 -50,0 -50,-37.5 v -292.292 l 225,105.88 v 186.4 c 0,37.5 -50,37.512 -50,37.512 v 12.5 h 175 v -12.5 c 0,0 -50,0 -50,-37.5 v -850.012 c 0,-37.5 50,-37.5 50,-37.5 v -12.5 h -175 v 12.499 z m 50,660.143 -225,-105.103 v -199.587 l 225,113.277 v 191.413 z " inkscape:connector-curvature="0" style="fill:#040000" />
</svg>
