<?xml version="1.0" encoding="UTF-8"?>
<svg height="1000" width="500" xmlns:inkscape="http://www.inkscape.org/namespaces/inkscape" xmlns:sodipodi="http://sodipodi.sourceforge.net/DTD/sodipodi-0.dtd">
  <path id="path31" d="m 45,956 c -9.918,5.615 -20.492,5.615 -20.492,5.615 v 12.5 h 37.5 l 150,-340 v 289.977 c 0,37.5 -50,37.512 -50,37.512 v 12.5 h 175 v -12.5 c 0,0 -50,0 -50,-37.5 v -289.99 l 150,339.99 v 0.011 l 37.5,-0.023 v -12.5 c 0,0 -10.578,0.01 -20.498,-5.605 l -167.002,-378.539 v -503.321 c 0,-37.5 50,-37.5 50,-37.5 v -12.5 h -175 v 12.5 c 0,0 50,0.012 50,37.512 v 503.31 l -167.008,378.551 z " inkscape:connector-curvature="0" style="fill:#040000" />
</svg>
