<?xml version="1.0" encoding="UTF-8"?>
<svg height="1000" width="500" xmlns:inkscape="http://www.inkscape.org/namespaces/inkscape" xmlns:sodipodi="http://sodipodi.sourceforge.net/DTD/sodipodi-0.dtd">
  <path id="path55" d="m 456,944 -261.218,-498.011 279.999,-221.343 -336.57,-200.226 -3.064,0.214 H 61 v 0.012 h -49 v 12.5 c 0,0 42.142,0.015 49.044,29.039 l 0.905,860.416 c -1.709,35.542 -49.949,35.557 -49.949,35.557 v 12.5 h 50 v -0.012 h 75 v 0.012 l 50,-0.012 v -12.5 c 0,0 -50,0 -50,-37.5 v -872.456 l 292.338,174.517 -265.889,211.396 286.051,536.543 37.5,-0.023 v -12.5 c -8.915,0.016 -17.832,0.015 -31.281,-18.123 z " inkscape:connector-curvature="0" style="fill:#040000" />
</svg>
