<?xml version="1.0" encoding="UTF-8"?>
<svg height="1000" width="500" xmlns:inkscape="http://www.inkscape.org/namespaces/inkscape" xmlns:sodipodi="http://sodipodi.sourceforge.net/DTD/sodipodi-0.dtd">
  <path id="path39" d="m 464,225 12.5,0 0,59.347 0,28.153 -339.5,187.5 0,259.949 296.189,-164.105 c 17.187,-21.194 30.811,-55.665 30.811,-83.344 l 12.5,0 0,59.347 0,28.501 -339.5,187.152 0,137.523 c 0,37.5 50,37.5 50,37.5 l 0,12.5 -175,0 0,-12.5 c 0,0 50,-0.012 50,-37.512 l 0,-849.988 c 0,-37.5 -50,-37.512 -50,-37.512 l 0,-12.5 175,0 0,12.5 c 0,0 -50,0 -50,37.5 l 0,397.438 296.561,-164.568 c 17.011,-21.23 30.439,-55.402 30.439,-82.881 z " inkscape:connector-curvature="0" sodipodi:nodetypes="ccccccccccccsccccssccccsccc" style="fill:#040000" />
</svg>
