<?xml version="1.0" encoding="UTF-8"?>
<svg height="1000" width="500" xmlns:inkscape="http://www.inkscape.org/namespaces/inkscape" xmlns:sodipodi="http://sodipodi.sourceforge.net/DTD/sodipodi-0.dtd">
  <path id="path45" d="m 287,358 v -283.952 c 0,-37.5 50,-37.5 50,-37.5 v -12.5 h -175 v 12.5 c 0,0 50,0.012 50,37.512 v 283.94 L 75,25 v -0.012 l -50,0.013 v 12.5 c 0,0 19.223,0 33.83,8.943 l 153.67,373.198 v 505.334 c 0,37.5 -50,37.512 -50,37.512 v 12.5 h 175 v -12.5 c 0,0 -50,0 -50,-37.5 v -505.346 l 154.486,-375.182 c 14.512,-7.691 32.008,-6.99 32.008,-6.99 l 1.006,-12.459 -50,-0.012 -137.5,333.93 z " inkscape:connector-curvature="0" style="fill:#040000" />
</svg>
