<?xml version="1.0" encoding="UTF-8"?>
<svg height="1000" width="500" xmlns:inkscape="http://www.inkscape.org/namespaces/inkscape" xmlns:sodipodi="http://sodipodi.sourceforge.net/DTD/sodipodi-0.dtd">
  <path id="path47" d="m 475,500 -187.5,-208.333 v -216.679 c 0,-37.5 50,-37.5 50,-37.5 v -12.5 h -175 v 12.5 c 0,0 50,0.012 50,37.512 v 216.667 l -187.5,208.333 187.5,187.5 v 237.477 c 0,37.5 -50,37.512 -50,37.512 v 12.5 h 175 v -12.5 c 0,0 -50,0 -50,-37.5 v -237.489 l 187.5,-187.5 z m -187.5,-170.963 153.051,170.057 -153.051,153.051 v -323.108 z m -75,323.108 -153.051,-153.051 153.051,-170.057 v 323.108 z " inkscape:connector-curvature="0" style="fill:#040000" />
</svg>
